<svg width="24" height="24" viewBox="0 0 24 24" fill="none" xmlns="http://www.w3.org/2000/svg">
<path fill-rule="evenodd" clip-rule="evenodd" d="M3 4.98361C3 4.44038 3.43753 4 3.97725 4H9.18924C10.0888 4 10.818 4.73396 10.818 5.63934V10.2295C10.818 10.7727 10.3805 11.2131 9.84074 11.2131C9.30102 11.2131 8.86349 10.7727 8.86349 10.2295V5.96721H3.97725C3.43753 5.96721 3 5.52684 3 4.98361ZM5.93175 13.1904C5.93175 12.6506 6.36927 12.2131 6.90899 12.2131C7.44871 12.2131 7.88624 12.6506 7.88624 13.1904V13.5246H9.83438C10.3776 13.5246 10.818 13.965 10.818 14.5082C10.818 15.0514 10.3776 15.4918 9.83438 15.4918H9.22993C10.0023 15.997 10.4922 16.7496 10.4922 17.5902C10.4922 19.1112 8.88795 20.3443 6.90898 20.3443C4.93001 20.3443 3.32574 19.1112 3.32574 17.5902C3.32574 16.7496 3.81568 15.997 4.58804 15.4918H3.98361C3.44038 15.4918 3 15.0514 3 14.5082C3 13.965 3.44038 13.5246 3.98361 13.5246L5.93175 13.5246V13.1904ZM8.53773 17.5902C8.53773 17.7097 8.47979 17.9054 8.20506 18.1166C7.92631 18.3308 7.4745 18.5082 6.90898 18.5082C6.34347 18.5082 5.89166 18.3308 5.61291 18.1166C5.33818 17.9054 5.28024 17.7097 5.28024 17.5902C5.28024 17.4706 5.33818 17.2749 5.61291 17.0638C5.89166 16.8495 6.34347 16.6721 6.90898 16.6721C7.4745 16.6721 7.92631 16.8495 8.20506 17.0638C8.47979 17.2749 8.53773 17.4706 8.53773 17.5902ZM15.9833 4.97725C15.9833 4.43753 16.4208 4 16.9605 4C17.5002 4 17.9378 4.43753 17.9378 4.97725V16.5533L19.8234 14.4829C20.1881 14.0824 20.8062 14.0554 21.2041 14.4225C21.6019 14.7895 21.6288 15.4117 21.2641 15.8122L18.1611 19.2193C17.5156 19.9281 16.4054 19.9281 15.7599 19.2193L12.6569 15.8122C12.2922 15.4117 12.319 14.7895 12.7169 14.4225C13.1148 14.0554 13.7329 14.0824 14.0976 14.4829L15.9833 16.5533V4.97725Z" fill="#FFFFFF"/>
</svg>
