<svg width="32" height="32" viewBox="0 0 32 32" fill="none" xmlns="http://www.w3.org/2000/svg">
<path fill-rule="evenodd" clip-rule="evenodd" d="M17.128 4.48257C16.6287 3.57248 15.3713 3.57248 14.872 4.48257L2.97368 26.1675C2.48542 27.0573 3.08593 28.2 4.10173 28.2H27.8983C28.9141 28.2 29.5146 27.0573 29.0263 26.1675L17.128 4.48257ZM16 7.37397L26.0784 25.7421H5.92159L16 7.37397Z" fill="#E30000"/>
<path d="M14.7553 14.3563C14.7553 13.6173 15.3126 13.0182 16 13.0182C16.6874 13.0182 17.2447 13.6173 17.2447 14.3563V18.3709C17.2447 19.1099 16.6874 19.7091 16 19.7091C15.3126 19.7091 14.7553 19.1099 14.7553 18.3709V14.3563Z" fill="#E30000"/>
<path d="M14.7553 22.3273C14.7553 21.6043 15.3126 21.0182 16 21.0182C16.6874 21.0182 17.2447 21.6043 17.2447 22.3273C17.2447 23.0503 16.6874 23.6364 16 23.6364C15.3126 23.6364 14.7553 23.0503 14.7553 22.3273Z" fill="#E30000"/>
</svg>
