<svg width="22" height="22" viewBox="0 0 24 24" fill="none" xmlns="http://www.w3.org/2000/svg">
<path fill-rule="evenodd" clip-rule="evenodd" d="M19.2948 3.87472C17.7642 2.23811 15.1988 2.1522 13.5622 3.68275L5.01529 11.6757C2.81117 13.737 2.69556 17.189 4.75685 19.3931C6.81813 21.5972 10.2701 21.7128 12.4742 19.6515L19.8245 12.7776C20.2333 12.3953 20.2547 11.7541 19.8725 11.3454C19.4902 10.9366 18.849 10.9151 18.4403 11.2974L11.09 18.1714C9.70439 19.4671 7.5328 19.3944 6.23704 18.0088C4.94127 16.6233 5.01399 14.4517 6.39955 13.1559L14.9464 5.16294C15.7645 4.3979 17.0495 4.44094 17.8146 5.25899C18.5796 6.07704 18.5366 7.36209 17.7185 8.12712L10.5391 14.8412C10.2886 15.0755 9.89009 15.0622 9.65579 14.8116C9.42148 14.5611 9.43483 14.1626 9.68537 13.9283L15.6682 8.3332C16.0769 7.95095 16.0984 7.30972 15.7161 6.90098C15.3339 6.49224 14.6927 6.47076 14.2839 6.85302L8.3011 12.4481C7.23201 13.4479 7.17578 15.1268 8.1756 16.1959C9.17541 17.265 10.8543 17.3212 11.9234 16.3214L19.1028 9.60731C20.7394 8.07676 20.8253 5.51134 19.2948 3.87472Z" fill="#888888"/>
</svg>
